# xmcd
#
# Track frame offsets:
# 150
# 15084
# 37212
# 49064
# 68626
# 82800
# 98115
# 115812
# 132737
# 148270
# 160423
#
# Disc length: 2346 seconds
#
#
# Revision: 0
# Processed by: cddbd v1.5.1PL2 Copyright (c) Steve Scherf et al.
# Submitted via: FreeRIP 2.944 
#
DISCID=9209280b
DTITLE=Craig Morgan - I Love It
DYEAR=2003
DGENRE=Country
TTITLE0=I Love It
TTITLE1=Almost Home
TTITLE2=Look At Us
TTITLE3=In The Dream
TTITLE4=You Never Know
TTITLE5=What You Do To Me
TTITLE6=Every Friday Afternoon
TTITLE7=Where Has My Hometown Gone
TTITLE8=Always Be Mine
TTITLE9=Money
TTITLE10=God,Family and Country
EXTD=
EXTT0=
EXTT1=
EXTT2=
EXTT3=
EXTT4=
EXTT5=
EXTT6=
EXTT7=
EXTT8=
EXTT9=
EXTT10=
PLAYORDER=
